Coordinates
version=1
nRows=24
nColumns=24
inDegrees=yes

Units are S.I. units (second, meters, Newtons, ...)
Angles are in degrees.

endheader
time	pelvis_tilt	pelvis_list	pelvis_rotation	pelvis_tx	pelvis_ty	pelvis_tz	hip_flexion_r	hip_adduction_r	hip_rotation_r	knee_angle_r	ankle_angle_r	subtalar_angle_r	mtp_angle_r	hip_flexion_l	hip_adduction_l	hip_rotation_l	knee_angle_l	ankle_angle_l	subtalar_angle_l	mtp_angle_l	lumbar_extension	lumbar_bending	lumbar_rotation
      0.87000000	     22.81017118	      0.03705250	      0.39406959	     -0.66598492	      0.95713208	      0.01662175	    -42.37086260	      2.41069915	    -11.38209778	     -1.41298792	     13.89143269	      7.32385008	     13.51599765	     -6.68688312	      1.87121941	    -22.07624343	      4.38120555	      0.39960963	     22.70828877	     32.62965943	    -33.46077978	     -1.24567828	     -2.84909810
      0.87500000	     22.86148554	      0.08566330	      0.27190737	     -0.65957903	      0.95636745	      0.01626815	    -42.64211907	      2.20452314	    -11.19700290	     -1.81392412	     13.96704167	      7.28897465	     13.53241850	     -6.76943022	      2.02117029	    -21.88429855	      4.48899618	     -0.12518316	     22.68172738	     32.60845019	    -33.44984977	     -1.36755803	     -2.84566255
      0.88000000	     22.93552573	      0.16085415	      0.11507619	     -0.65313435	      0.95570248	      0.01598643	    -42.92009864	      1.94947631	    -10.97366005	     -2.25018135	     14.02321371	      7.24782074	     13.60613339	     -6.88672877	      2.18903485	    -21.70139748	      4.49138377	     -0.72194424	     22.46379025	     32.61857391	    -33.45930957	     -1.53835377	     -2.85926391
      0.88500000	     23.02710111	      0.25799613	     -0.05171650	     -0.64669310	      0.95511823	      0.01576232	    -43.19646942	      1.67017004	    -10.72547338	     -2.71650972	     14.04729428	      7.16115782	     13.74010115	     -7.01360074	      2.36063342	    -21.48622323	      4.36041730	     -1.38128920	     22.05858840	     32.66850812	    -33.48814003	     -1.74401486	     -2.88484808
      0.89000000	     23.04885902	      0.30490919	     -0.15057941	     -0.64037588	      0.95452927	      0.01544565	    -43.35464641	      1.47116567	    -10.45043499	     -3.22880666	     13.75291589	      6.99198642	     15.56271774	     -7.05298439	      2.45723208	    -20.98760673	      4.15257698	     -2.36161997	     20.89764223	     34.93904243	    -33.45998627	     -1.86702703	     -2.94441834
      0.89500000	     23.19783208	      0.45763976	     -0.31317066	     -0.63394501	      0.95414919	      0.01529380	    -43.67252455	      1.15668899	    -10.15132591	     -3.71769253	     13.67011314	      6.74711837	     15.74638611	     -7.21580893	      2.64908751	    -20.68016959	      3.76289515	     -3.05752860	     20.17791700	     35.03173196	    -33.55531509	     -2.13993373	     -3.01611458
      0.90000000	     23.18213428	      0.55059148	     -0.42697002	     -0.62762393	      0.95367241	      0.01507404	    -43.72117258	      0.91247129	     -9.80512561	     -4.35907852	     13.47562098	      6.45644168	     17.10784008	     -7.16870669	      2.75210654	    -20.17121242	      3.26762257	     -3.94779765	     19.00145128	     36.41954873	    -33.48924317	     -2.32992042	     -3.11483728
      0.90500000	     23.31785724	      0.72513290	     -0.61819789	     -0.62119411	      0.95345782	      0.01500206	    -43.96359248	      0.56056342	     -9.41056081	     -4.94487126	     13.33446651	      6.15892711	     17.27916202	     -7.29591995	      2.94463542	    -19.82164778	      2.67762611	     -4.64553780	     18.02329966	     36.42635677	    -33.57081102	     -2.64867101	     -3.21545458
      0.91000000	     23.29015096	      0.87156971	     -0.68711467	     -0.61488211	      0.95311995	      0.01474681	    -43.95248841	      0.30801586	     -9.12383210	     -5.65726662	     12.95297969	      5.77455217	     19.18227537	     -7.16804819	      3.06794125	    -19.19884658	      1.90922871	     -5.42850328	     16.57044428	     37.99872826	    -33.49757113	     -2.87744883	     -3.35134988
      0.91500000	     23.34196281	      1.04532715	     -0.76382044	     -0.60860869	      0.95294845	      0.01453467	    -44.00538032	      0.03841357	     -8.78514668	     -6.41187465	     12.73130162	      5.31415168	     19.44166028	     -7.11765643	      3.21194535	    -18.57166669	      1.05303211	     -5.94650598	     15.29706625	     37.99965883	    -33.51787088	     -3.14335431	     -3.52809640
      0.92000000	     23.31564957	      1.21888566	     -0.81328647	     -0.60234627	      0.95276138	      0.01425955	    -43.90783302	     -0.22199100	     -8.51140521	     -7.28468136	     12.40671821	      4.92028727	     21.09150859	     -6.94435978	      3.34369513	    -17.88284048	      0.08983025	     -6.45176180	     13.90217880	     38.63808047	    -33.45672429	     -3.39456557	     -3.71535628
      0.92500000	     23.31498942	      1.37881929	     -0.87547088	     -0.59612295	      0.95269441	      0.01402216	    -43.82707280	     -0.46529014	     -8.09700945	     -8.15809984	     12.10562436	      4.41108766	     21.32989428	     -6.77442343	      3.45709057	    -17.21422022	     -0.96942514	     -6.75074870	     12.54965536	     38.50262725	    -33.42975894	     -3.64086805	     -3.88088434
      0.93000000	     23.23505331	      1.54978407	     -0.84407160	     -0.58992525	      0.95258292	      0.01364470	    -43.59516645	     -0.65959757	     -7.83956619	     -9.16678640	     11.79374414	      3.96845417	     21.80652350	     -6.46487095	      3.56135476	    -16.40532618	     -2.16246500	     -6.86287268	     11.20217383	     38.35022985	    -33.32788797	     -3.85264205	     -4.12155415
      0.93500000	     23.21434465	      1.80999811	     -0.76762891	     -0.58360854	      0.95256164	      0.01315454	    -43.42225320	     -0.90208774	     -7.79815165	    -10.18300074	     11.11569512	      3.48042508	     24.35425769	     -6.24903291	      3.77563591	    -15.51585851	     -3.32788521	     -6.85259912	      9.87383163	     37.92012202	    -33.28239410	     -4.12740968	     -4.48454731
      0.94000000	     23.06143954	      1.91372353	     -0.71968559	     -0.57749777	      0.95249440	      0.01272341	    -42.99730251	     -1.02876283	     -7.45681514	    -11.37851583	     10.74999623	      2.96717926	     24.73873379	     -5.78520227	      3.80080593	    -14.77955863	     -4.72267237	     -6.63316097	      8.76888040	     37.66062929	    -33.11626787	     -4.26157181	     -4.66426595
      0.94500000	     23.00240321	      2.18138836	     -0.60604037	     -0.57116419	      0.95253428	      0.01209246	    -42.69197689	     -1.26355102	     -7.50597249	    -12.55739930	      9.97293631	      2.47980050	     27.26254828	     -5.51618943	      4.03980944	    -13.85277617	     -5.96407060	     -6.26616558	      7.60775895	     36.19370258	    -33.03429254	     -4.51632275	     -5.03744272
      0.95000000	     22.81346295	      2.28142229	     -0.48010357	     -0.56502612	      0.95247584	      0.01152378	    -42.13337240	     -1.34194657	     -7.31800606	    -13.92714312	      9.49594156	      1.99250332	     27.64542004	     -4.99115158	      4.06373733	    -13.10379988	     -7.44724312	     -5.73427951	      6.81239502	     35.85673514	    -32.83312918	     -4.60768941	     -5.28271779
      0.95500000	     22.68427725	      2.52035003	     -0.34885428	     -0.55866792	      0.95251765	      0.01083226	    -41.64022147	     -1.55501711	     -7.40788179	    -15.29417464	      8.51806206	      1.40825280	     30.93326478	     -4.63693498	      4.27723185	    -12.29822889	     -8.76591458	     -4.92860310	      6.24870982	     33.05572451	    -32.67733804	     -4.82451847	     -5.63238133
      0.96000000	     22.55889499	      2.69602708	     -0.20852842	     -0.55238734	      0.95259380	      0.01009605	    -41.08783279	     -1.71558115	     -7.45556931	    -16.76917196	      7.69806320	      0.94865835	     32.43110558	     -4.29333612	      4.43517369	    -11.51916282	    -10.07002428	     -4.10842342	      5.61967416	     31.14249054	    -32.53268922	     -4.96896924	     -5.92815973
      0.96500000	     22.40317249	      2.87884297	     -0.07693093	     -0.54603172	      0.95267969	      0.00937784	    -40.45767557	     -1.89782435	     -7.55219964	    -18.31295222	      6.72476744	      0.45729581	     34.22478552	     -3.93865922	      4.59942891	    -10.88313576	    -11.35159436	     -3.25638632	      5.29894348	     29.22330210	    -32.34802218	     -5.12771321	     -6.23273511
      0.97000000	     22.24653188	      3.06119309	      0.03928561	     -0.53966671	      0.95277767	      0.00861887	    -39.76004934	     -2.10963339	     -7.69352307	    -19.98524343	      5.89602331	      0.13076303	     34.53876444	     -3.65374417	      4.78655814	    -10.26193752	    -12.47449123	     -2.55441577	      4.85597973	     28.92833764	    -32.15783687	     -5.28784967	     -6.49607930
      0.97500000	     22.16871467	      3.31352109	      0.08612706	     -0.53315509	      0.95303213	      0.00786240	    -39.13941340	     -2.45030592	     -7.91951453	    -21.62165828	      4.56142298	     -0.35501956	     37.81705933	     -3.56656196	      5.07732608	     -9.74544351	    -13.41845881	     -1.53895064	      4.68663630	     26.18321760	    -32.03386806	     -5.53805174	     -6.74674789
      0.98000000	     22.01828900	      3.50211586	      0.15421191	     -0.52671052	      0.95323603	      0.00709799	    -38.36808128	     -2.72891047	     -8.08609076	    -23.37786454	      3.37682200	     -0.68905192	     38.19407325	     -3.42386318	      5.29626978	     -9.27367294	    -14.28256589	     -0.81929622	      4.46144733	     25.73042462	    -31.83745179	     -5.71917055	     -6.96797095
      0.98500000	     21.98993894	      3.81100770	      0.11373081	     -0.52009787	      0.95362587	      0.00643845	    -37.71988513	     -3.20691939	     -8.37399094	    -25.11043423	      1.84332961	     -1.17692563	     41.13754987	     -3.53512513	      5.65945467	     -8.99757648	    -14.94147085	      0.08962395	      4.57304360	     23.20287474	    -31.74918283	     -6.06600332	     -7.17708016
